# xmcd CD database file
#
# Track frame offsets:
#	150
#	24116
#	54513
#	70387
#	103532
#	124816
#	138021
#	168968
#	195746
#	221380
#	243723
#
# Disc length: 3594 seconds
#
# Revision: 0
# Processed by: cddbd v1.5.2PL0 Copyright (c) Steve Scherf et al.
# Submitted via: CDex 1.51
#
DISCID=940e080b
DTITLE=Simon Spang Hanssen - Coexistence
DYEAR=2007
DGENRE=Jazz
TTITLE0=U-Burn
TTITLE1=Coexistence
TTITLE2=Upstairs
TTITLE3=Tranetalk
TTITLE4=Balladinho
TTITLE5=The Rabbit
TTITLE6=East Of The Moon
TTITLE7=Elsewhere
TTITLE8=Moontrap
TTITLE9=Time Out
TTITLE10=Cover Story
EXTD=YEAR: 2007
EXTT0=
EXTT1=
EXTT2=
EXTT3=
EXTT4=
EXTT5=
EXTT6=
EXTT7=
EXTT8=
EXTT9=
EXTT10=
PLAYORDER=
